<svg width="27" height="27" viewBox="0 0 27 27" fill="none" xmlns="http://www.w3.org/2000/svg">
<path d="M1 13.5C1 7.60789 1 4.66053 2.83026 2.83026C4.66053 1 7.60658 1 13.5 1C19.3921 1 22.3395 1 24.1697 2.83026C26 4.66053 26 7.60658 26 13.5C26 19.3921 26 22.3395 24.1697 24.1697C22.3395 26 19.3934 26 13.5 26C7.60789 26 4.66053 26 2.83026 24.1697C1 22.3395 1 19.3934 1 13.5Z" stroke="#03071E" stroke-width="2"/>
<path d="M1 9.55261H26" stroke="#03071E" stroke-width="2" stroke-linejoin="round"/>
<path d="M6.92114 5.60529H6.93298M12.1843 5.60529H12.1961" stroke="#03071E" stroke-width="2" stroke-linecap="round" stroke-linejoin="round"/>
<path d="M9.70792 15.4736C9.44144 15.1757 9.09078 14.9657 8.70234 14.8715C8.31391 14.7772 7.906 14.8031 7.53261 14.9457C7.15921 15.0883 6.83791 15.341 6.61124 15.6702C6.38457 15.9994 6.26319 16.3897 6.26318 16.7894V18.1052C6.26319 18.5049 6.38457 18.8952 6.61124 19.2244C6.83791 19.5537 7.15921 19.8063 7.53261 19.9489C7.906 20.0915 8.31391 20.1174 8.70234 20.0232C9.09078 19.9289 9.44144 19.7189 9.70792 19.421M18.1053 14.8157L20.7369 20.0789" stroke="#03071E" stroke-width="2" stroke-linecap="round" stroke-linejoin="round"/>
<path d="M14.1475 15.4737H14.1606M14.1475 19.4211H14.1606" stroke="#03071E" stroke-width="2" stroke-linecap="round" stroke-linejoin="round"/>
</svg>
