<svg width="60" height="43" viewBox="0 0 60 43" fill="none" xmlns="http://www.w3.org/2000/svg">
<path d="M59.4157 16.0726C59.2487 15.9352 57.746 14.8088 54.5181 14.8088C53.6832 14.8088 52.8205 14.8912 51.9857 15.0286C51.3735 10.825 47.8394 8.79187 47.7002 8.68201L46.8376 8.18738L46.281 8.9842C45.5854 10.0557 45.0566 11.2646 44.7505 12.501C44.1662 14.8912 44.5279 17.1442 45.7523 19.0673C44.2774 19.8916 41.8843 20.0839 41.3834 20.1113H1.86806C0.838471 20.1113 0.00362326 20.9356 0.00362326 21.9522C-0.0519597 25.359 0.532364 28.7658 1.729 31.9803C3.09249 35.4971 5.12398 38.1072 7.73979 39.7007C10.6895 41.4865 15.5036 42.503 20.93 42.503C23.3789 42.503 25.8276 42.2833 28.2487 41.8437C31.6158 41.2392 34.8438 40.0853 37.8214 38.4094C40.2616 37.0127 42.4604 35.2315 44.333 33.1343C47.4776 29.645 49.342 25.7437 50.7055 22.2819H51.262C54.6849 22.2819 56.7998 20.9356 57.9685 19.7816C58.7477 19.0673 59.332 18.1882 59.7495 17.1991L60 16.4848L59.4157 16.0726Z" fill="#0091E2"/>
<path d="M5.54148 18.9848H10.8287C11.0792 18.9848 11.3018 18.7926 11.3018 18.5178V13.8472C11.3018 13.5999 11.107 13.3801 10.8287 13.3801H5.54148C5.29105 13.3801 5.06842 13.5724 5.06842 13.8472V18.5178C5.09621 18.7926 5.29105 18.9849 5.54148 18.9849V18.9848ZM12.8323 18.9848H18.1196C18.37 18.9848 18.5926 18.7926 18.5926 18.5178V13.8472C18.5926 13.5999 18.3978 13.3801 18.1196 13.3801H12.8322C12.5818 13.3801 12.3591 13.5724 12.3591 13.8472V18.5178C12.387 18.7926 12.5819 18.9849 12.8322 18.9849M20.2621 18.9849H25.5494C25.7999 18.9849 26.0225 18.7926 26.0225 18.5178V13.8472C26.0225 13.5999 25.8276 13.3801 25.5494 13.3801H20.2621C20.0117 13.3801 19.7891 13.5724 19.7891 13.8472V18.5178C19.7891 18.7926 19.9839 18.9849 20.2621 18.9849ZM27.5808 18.9849H32.8681C33.1185 18.9849 33.3412 18.7926 33.3412 18.5178V13.8472C33.3412 13.5999 33.1463 13.3801 32.8681 13.3801H27.5808C27.3304 13.3801 27.1078 13.5724 27.1078 13.8472V18.5178C27.1078 18.7926 27.3304 18.9849 27.5808 18.9849ZM12.8323 12.3086H18.1195C18.3699 12.3086 18.5925 12.0889 18.5925 11.8416V7.1709C18.5925 6.92359 18.3977 6.70376 18.1195 6.70376H12.8322C12.5818 6.70376 12.3591 6.8961 12.3591 7.1709V11.8416C12.387 12.0888 12.582 12.3086 12.8323 12.3086ZM20.2621 12.3086H25.5494C25.7999 12.3086 26.0225 12.0889 26.0225 11.8416V7.1709C26.0225 6.92359 25.8276 6.70376 25.5494 6.70376H20.2621C20.0117 6.70376 19.7891 6.8961 19.7891 7.1709V11.8416C19.7891 12.0888 19.9839 12.3086 20.2621 12.3086ZM27.5808 12.3086H32.8681C33.1185 12.3086 33.3412 12.0889 33.3412 11.8416V7.1709C33.3412 6.92359 33.1184 6.70376 32.8681 6.70376H27.5808C27.3304 6.70376 27.1078 6.8961 27.1078 7.1709V11.8416C27.1078 12.0888 27.3304 12.3086 27.5808 12.3086ZM27.5808 5.60485H32.8681C33.1185 5.60485 33.3412 5.41251 33.3412 5.13781V0.467137C33.3412 0.219823 33.1184 0 32.8681 0H27.5808C27.3304 0 27.1078 0.192333 27.1078 0.467137V5.13781C27.1078 5.38502 27.3304 5.60485 27.5808 5.60485ZM34.9551 18.9849H40.2424C40.4928 18.9849 40.7155 18.7926 40.7155 18.5178V13.8472C40.7155 13.5999 40.5207 13.3801 40.2424 13.3801H34.9552C34.7047 13.3801 34.482 13.5724 34.482 13.8472V18.5178C34.5099 18.7926 34.7048 18.9849 34.9552 18.9849" fill="#0091E2"/>
</svg>
