<svg width="60" height="60" viewBox="0 0 60 60" fill="none" xmlns="http://www.w3.org/2000/svg">
<path d="M45.9375 0H14.0625C6.296 0 0 6.296 0 14.0625V45.9375C0 53.704 6.296 60 14.0625 60H45.9375C53.704 60 60 53.704 60 45.9375V14.0625C60 6.296 53.704 0 45.9375 0Z" fill="#F4F2ED"/>
<path d="M53.4375 42.8759C52.7552 43.1344 52.002 43.1337 51.3199 42.8745C50.6381 42.615 50.0747 42.1149 49.7365 41.4685C47.6123 38.2887 45.2667 35.2524 43.0123 32.1509L42.0347 30.8478C39.3502 34.4445 36.6656 37.8978 34.2157 41.4816C33.8965 42.0994 33.3637 42.5801 32.7164 42.8342C32.0691 43.0885 31.3514 43.0985 30.6973 42.863L40.7707 29.3492L31.4009 17.1384C32.0754 16.8948 32.8132 16.8915 33.4898 17.1289C34.1665 17.3663 34.7405 17.83 35.115 18.4415C37.2912 21.6213 39.7022 24.6577 42.0998 27.8766C44.5109 24.6837 46.8956 21.6343 49.1241 18.4806C49.4449 17.8729 49.9781 17.4043 50.6222 17.164C51.266 16.9237 51.9759 16.9285 52.6165 17.1775L48.9806 21.9992C47.3517 24.1493 45.7488 26.3126 44.0548 28.4107C43.9181 28.5331 43.8089 28.6826 43.7341 28.85C43.6594 29.0173 43.6207 29.1985 43.6207 29.3817C43.6207 29.5648 43.6594 29.746 43.7341 29.9133C43.8089 30.0807 43.9181 30.2302 44.0548 30.3525C47.1694 34.4836 50.2577 38.6276 53.4375 42.8759Z" fill="#0F0F0F"/>
<path d="M6.5625 29.1797C6.83616 27.8766 7.00559 26.456 7.38349 25.1269C9.63797 17.1124 18.8253 13.7763 25.1456 18.7414C28.8466 21.6474 29.772 25.7656 29.5896 30.4048H8.73879C8.39998 38.693 14.3815 43.6971 22.0311 41.1429C23.272 40.699 24.3827 39.9532 25.2633 38.9726C26.1438 37.992 26.7661 36.8074 27.0743 35.5261C27.4784 34.223 28.1299 34.0015 29.3679 34.3793C29.164 35.9658 28.6031 37.4855 27.7273 38.824C26.8516 40.1625 25.6838 41.2849 24.3117 42.1071C22.0447 43.347 19.4437 43.838 16.8808 43.5103C14.3178 43.1827 11.9241 42.053 10.042 40.2827C8.17995 38.1891 7.05405 35.5439 6.83616 32.7504C6.83616 32.3074 6.66675 31.8642 6.57553 31.4473C6.56684 30.6741 6.5625 29.9182 6.5625 29.1797ZM8.76485 28.6193H27.6218C27.5044 22.6118 23.7122 18.3504 18.6559 18.3113C13.0262 18.2331 8.99944 22.4033 8.75182 28.5933L8.76485 28.6193Z" fill="#0F0F0F"/>
</svg>
