<svg width="27" height="27" viewBox="0 0 27 27" fill="none" xmlns="http://www.w3.org/2000/svg">
<path d="M12.875 6C7.27751 6 4.4775 6 2.73875 7.465C1 8.93 1 11.2863 1 16C1 20.7137 1 23.0712 2.73875 24.535C4.4775 25.9987 7.27626 26 12.875 26C18.4725 26 21.2725 26 23.0113 24.535C24.75 23.07 24.75 20.7137 24.75 16C24.75 14.5375 24.75 13.3025 24.6988 12.25" stroke="#03071E" stroke-width="2" stroke-linecap="round"/>
<path d="M21.625 1L21.9475 1.87125C22.37 3.01375 22.5813 3.585 22.9975 4.00125C23.415 4.41875 23.9863 4.63 25.1288 5.0525L26 5.375L25.1288 5.6975C23.9863 6.12 23.415 6.33125 22.9988 6.7475C22.5813 7.165 22.37 7.73625 21.9475 8.87875L21.625 9.75L21.3025 8.87875C20.88 7.73625 20.6688 7.165 20.2525 6.74875C19.835 6.33125 19.2638 6.12 18.1213 5.6975L17.25 5.375L18.1213 5.0525C19.2638 4.63 19.835 4.41875 20.2513 4.0025C20.6688 3.585 20.88 3.01375 21.3025 1.87125L21.625 1Z" stroke="#03071E" stroke-width="2" stroke-linejoin="round"/>
<path d="M17.875 13.5L19.4088 14.8213C20.0525 15.3775 20.375 15.655 20.375 16C20.375 16.345 20.0525 16.6225 19.4088 17.1787L17.875 18.5M7.875 13.5L6.34125 14.8213C5.6975 15.3775 5.375 15.655 5.375 16C5.375 16.345 5.6975 16.6225 6.34125 17.1787L7.875 18.5M14.125 12.25L11.625 19.75" stroke="#03071E" stroke-width="2" stroke-linecap="round" stroke-linejoin="round"/>
</svg>
