<svg width="60" height="59" viewBox="0 0 60 59" fill="none" xmlns="http://www.w3.org/2000/svg">
<path d="M30.0001 0C13.4336 0 0 13.5417 0 30.2468C0 43.6108 8.59593 54.9485 20.516 58.948C22.0152 59.228 22.5658 58.2919 22.5658 57.4929C22.5658 56.7718 22.5378 54.3889 22.5251 51.8616C14.1788 53.6912 12.4177 48.2928 12.4177 48.2928C11.053 44.7967 9.08674 43.8672 9.08674 43.8672C6.36495 41.9899 9.29191 42.0283 9.29191 42.0283C12.3045 42.2418 13.8908 45.1454 13.8908 45.1454C16.5665 49.7695 20.9089 48.4325 22.6208 47.6599C22.89 45.7048 23.6676 44.3706 24.5255 43.6153C17.8622 42.8503 10.8573 40.2568 10.8573 28.6671C10.8573 25.365 12.0292 22.6666 13.9484 20.5485C13.6369 19.7865 12.6101 16.7103 14.239 12.544C14.239 12.544 16.7582 11.731 22.4912 15.6444C24.8841 14.9741 27.4506 14.6382 30.0001 14.6268C32.5497 14.6382 35.1181 14.9741 37.5156 15.6444C43.2418 11.731 45.7574 12.544 45.7574 12.544C47.3903 16.7103 46.3631 19.7865 46.0515 20.5485C47.975 22.6666 49.139 25.3648 49.139 28.6671C49.139 40.2843 42.1209 42.8425 35.4406 43.5911C36.5166 44.5298 37.4754 46.3706 37.4754 49.1924C37.4754 53.2393 37.4406 56.4966 37.4406 57.4929C37.4406 58.2978 37.9805 59.241 39.5014 58.944C51.4149 54.94 60 43.6063 60 30.2468C60 13.5417 46.5682 0 30.0001 0Z" fill="#FAFAFC"/>
</svg>
