<svg width="60" height="60" viewBox="0 0 60 60" fill="none" xmlns="http://www.w3.org/2000/svg">
<path d="M0 0H60V60H0" fill="#F7DF1E"/>
<path d="M37.9688 43.3594C39.2969 45.625 41.0547 46.7578 43.2422 46.7578C45.9766 46.7578 47.3438 45.7031 47.3438 43.5938C47.3438 42.3047 45.5859 41.1328 42.7734 39.9609C37.5391 38.2422 34.9609 35.3125 35.0391 31.1719C35.0391 26.9531 38.2031 23.6719 43.2422 23.6719C46.9922 23.6719 49.6484 25.1953 51.2109 28.2422L46.875 31.0547C45.9375 29.3359 44.7266 28.5156 43.2422 28.5938C41.5234 28.6719 40.625 29.4922 40.5469 31.0547C40.5469 32.6953 41.6016 33.3984 45.1172 34.9219C50.1562 36.9141 52.9688 39.1406 52.9688 43.9453C52.7344 49.0234 49.6484 51.6406 43.7109 51.7969C38.7891 51.7969 35.3125 49.8828 33.2812 46.0547L37.9688 43.3594ZM18.0469 43.8281C18.9844 45.3516 19.5703 46.7578 21.9141 46.7578C23.7891 46.7578 24.7266 45.5859 24.7266 43.2422V23.7891H30.3516V43.0078C30.2734 48.5547 27.4609 51.3672 21.9141 51.4453C17.7734 51.3672 14.9609 49.6484 13.4766 46.2891L18.0469 43.8281Z" fill="black"/>
</svg>
