<svg width="60" height="66" viewBox="0 0 60 66" fill="none" xmlns="http://www.w3.org/2000/svg">
<path d="M27.2802 0.705061C28.9386 -0.232949 31.053 -0.23709 32.6699 0.705061L57.4294 14.6468C58.9779 15.5165 60.0144 17.2414 59.9999 19.0242V46.9781C60.0102 48.8355 58.8722 50.5977 57.2387 51.4508L32.6119 65.3284C31.7696 65.7933 30.818 66.0245 29.856 65.9979C28.894 65.9714 27.9566 65.688 27.1413 65.1772L19.7512 60.9116C19.2475 60.6114 18.6816 60.3733 18.325 59.8867C18.6401 59.4642 19.1998 59.4104 19.6559 59.224C20.6841 58.8969 21.6252 58.3958 22.5705 57.8657C22.8089 57.7 23.1011 57.7622 23.3292 57.9112L29.631 61.5515C30.0808 61.8103 30.5369 61.4686 30.9224 61.2512L55.1035 47.6201C55.402 47.4751 55.5679 47.1604 55.543 46.8332V19.1485C55.5762 18.7757 55.3626 18.4361 55.0247 18.285L30.4602 4.46745C30.3186 4.36965 30.1506 4.31709 29.9785 4.31672C29.8064 4.31635 29.6382 4.36819 29.4962 4.46538L4.96689 18.3119C4.63521 18.4631 4.40719 18.7985 4.44865 19.1712V46.856C4.41962 47.1831 4.59375 47.4917 4.89433 47.6325L11.449 51.3286C12.6804 51.9912 14.1916 52.3639 15.5473 51.8773C16.1405 51.654 16.6513 51.2548 17.011 50.7334C17.3708 50.2119 17.5624 49.5931 17.5601 48.9598L17.5663 21.4407C17.5373 21.0328 17.9229 20.6952 18.3188 20.7366H21.4697C21.8843 20.7263 22.2098 21.1653 22.1538 21.5753L22.1476 49.2683C22.1497 51.7282 21.1381 54.4035 18.8599 55.6107C16.0531 57.0602 12.5829 56.7558 9.80932 55.3623L2.76126 51.4694C1.10289 50.6412 -0.010293 48.8521 7.17691e-05 46.9968V19.0428C0.00696712 18.1343 0.257015 17.2441 0.724295 16.4646C1.19158 15.6851 1.85908 15.0446 2.65761 14.6096L27.2802 0.705061ZM34.4195 20.0823C37.9995 19.8753 41.8324 19.9457 45.0538 21.7078C47.5476 23.0579 48.9302 25.8905 48.9758 28.6611C48.9054 29.0338 48.5156 29.2409 48.1591 29.2139C47.1226 29.2119 46.082 29.2284 45.0414 29.2077C44.5998 29.2243 44.3448 28.8184 44.2889 28.4292C43.9904 27.1039 43.2669 25.7932 42.019 25.1534C40.1036 24.1947 37.8814 24.2423 35.7918 24.263C34.2661 24.3458 32.6264 24.4763 31.3349 25.3708C30.3399 26.05 30.0414 27.4415 30.3959 28.5223C30.7276 29.3154 31.6459 29.5701 32.3942 29.8061C36.7101 30.9326 41.281 30.8415 45.5161 32.3054C47.2677 32.9101 48.9821 34.0862 49.5832 35.9187C50.3668 38.3745 50.0248 41.3107 48.2773 43.282C46.8594 44.9054 44.7947 45.7668 42.7321 46.2679C39.9896 46.8788 37.1455 46.8933 34.3615 46.6199C31.7433 46.3218 29.0195 45.6343 26.9983 43.8535C25.2695 42.3544 24.4278 40.0187 24.5108 37.7658C24.5315 37.3848 24.9108 37.1197 25.2778 37.1508H28.3872C28.8059 37.1218 29.1127 37.4821 29.1335 37.8755C29.3263 39.1179 29.801 40.4638 30.9038 41.1886C33.0306 42.5594 35.6985 42.4641 38.1322 42.5034C40.1492 42.4144 42.4128 42.3875 44.0609 41.054C44.9315 40.2941 45.1865 39.0247 44.9522 37.9314C44.6973 37.0079 43.7085 36.5793 42.8793 36.2749C38.6193 34.929 33.9966 35.4176 29.7782 33.8936C28.0659 33.289 26.4096 32.146 25.7525 30.388C24.8341 27.9032 25.255 24.8241 27.189 22.9191C29.0547 21.0245 31.791 20.2935 34.3822 20.0326L34.4195 20.0823Z" fill="#8CC84B"/>
</svg>
