<svg width="62" height="64" viewBox="0 0 62 64" fill="none" xmlns="http://www.w3.org/2000/svg">
<path d="M31 37.299C34.0878 37.299 36.5909 34.7959 36.5909 31.7081C36.5909 28.6203 34.0878 26.1172 31 26.1172C27.9122 26.1172 25.4091 28.6203 25.4091 31.7081C25.4091 34.7959 27.9122 37.299 31 37.299Z" fill="#61DAFB"/>
<path d="M31 43.1626C47.5685 43.1626 61 38.0343 61 31.7081C61 25.3819 47.5685 20.2535 31 20.2535C14.4315 20.2535 1 25.3819 1 31.7081C1 38.0343 14.4315 43.1626 31 43.1626Z" stroke="#61DAFB"/>
<path d="M21.0801 37.4353C29.3644 51.7841 40.5214 60.8519 46 57.6888C51.4787 54.5257 49.2042 40.3295 40.92 25.9808C32.6357 11.632 21.4787 2.56419 16 5.72727C10.5214 8.89036 12.7958 23.0865 21.0801 37.4353Z" stroke="#61DAFB"/>
<path d="M21.0801 25.9806C12.7958 40.3293 10.5214 54.5255 16 57.6886C21.4787 60.8517 32.6357 51.7839 40.92 37.4351C49.2042 23.0863 51.4787 8.89016 46 5.72707C40.5214 2.56399 29.3644 11.6318 21.0801 25.9806Z" stroke="#61DAFB"/>
</svg>
