<svg width="60" height="60" viewBox="0 0 60 60" fill="none" xmlns="http://www.w3.org/2000/svg">
<path d="M57.6768 59.9866H2.32319C1.04745 59.9866 0 58.9391 0 57.6634V2.32319C0 1.04745 1.04745 0 2.32319 0H57.6768C58.9526 0 60 1.04745 60 2.32319V57.6768C59.9866 58.9525 58.9526 59.9866 57.6768 59.9866Z" fill="#4D4D4E"/>
<path d="M13.8317 18.1154L45.2283 8.15125C45.2283 8.15125 47.4574 6.98294 46.9203 9.14498L47.0009 18.7466C47.0009 18.7466 47.3903 20.1566 45.4566 20.5058L32.6992 24.4941L13.8317 18.1154Z" fill="#F89820"/>
<path d="M13.8317 18.1155C13.8317 18.1155 12.5962 18.4109 12.9588 20.5192L12.8916 29.7717C12.8916 29.7717 12.7842 30.94 15 31.41L46.1146 41.4279C46.1146 41.4279 47.162 41.8442 47.0412 40.5551L47.0546 30.2417C47.0546 30.2417 47.35 29.1808 45.4163 28.4825L32.6992 24.4942L13.8317 18.1155Z" fill="#F89820"/>
<path d="M27.5425 35.4387L14.3017 39.4808C14.3017 39.4808 12.7037 39.5345 12.8917 42.5291C13.0797 45.5238 12.8782 51.5533 12.8782 51.5533C12.8782 51.5533 13.0125 52.6679 14.5434 52.0233L45.94 42.0054C45.94 42.0054 47.0546 41.7234 46.1146 41.4145C45.1746 41.1191 27.5425 35.4387 27.5425 35.4387Z" fill="url(#paint0_linear_416_130)"/>
<defs>
<linearGradient id="paint0_linear_416_130" x1="14.715" y1="46.066" x2="46.4746" y2="35.0775" gradientUnits="userSpaceOnUse">
<stop offset="0.233" stop-color="#F89822"/>
<stop offset="1" stop-color="#C27818"/>
</linearGradient>
</defs>
</svg>
