<svg width="60" height="60" viewBox="0 0 60 60" fill="none" xmlns="http://www.w3.org/2000/svg">
<path d="M45.9375 0H14.0625C6.296 0 0 6.296 0 14.0625V45.9375C0 53.704 6.296 60 14.0625 60H45.9375C53.704 60 60 53.704 60 45.9375V14.0625C60 6.296 53.704 0 45.9375 0Z" fill="#242938"/>
<path d="M7.90214 23.4863C7.90214 23.4863 6.79251 22.6864 8.12406 21.6183L11.2264 18.8442C11.2264 18.8442 12.1141 17.9103 13.0527 18.724L41.6812 40.3988V50.7924C41.6812 50.7924 41.6674 52.4246 39.5728 52.2441L7.90214 23.4863Z" fill="#2489CA"/>
<path d="M15.2812 30.1857L7.90212 36.8942C7.90212 36.8942 7.14387 37.4583 7.90212 38.4664L11.3281 41.5824C11.3281 41.5824 12.1419 42.4564 13.3439 41.4622L21.1669 35.5304L15.2812 30.1857Z" fill="#1070B3"/>
<path d="M28.2361 30.2412L41.7691 19.9076L41.6812 9.56955C41.6812 9.56955 41.1033 7.31329 39.1753 8.48765L21.1669 24.8778L28.2361 30.2412Z" fill="#0877B9"/>
<path d="M39.5728 52.2581C40.3589 53.0624 41.3114 52.799 41.3114 52.799L51.8576 47.6022C53.2076 46.6821 53.018 45.5402 53.018 45.5402V14.5073C53.018 13.1434 51.6215 12.6718 51.6215 12.6718L42.4812 8.26565C40.4838 7.03119 39.1753 8.48758 39.1753 8.48758C39.1753 8.48758 40.8581 7.27623 41.6812 9.56947V50.6027C41.6812 50.8849 41.621 51.1621 41.501 51.412C41.2605 51.8974 40.7381 52.3504 39.4851 52.1608L39.5728 52.2581Z" fill="#3C99D4"/>
</svg>
