<svg width="35" height="31" viewBox="0 0 35 31" fill="none" xmlns="http://www.w3.org/2000/svg">
<path fill-rule="evenodd" clip-rule="evenodd" d="M21.875 26.2722C23.024 26.2722 24.1619 26.0456 25.2234 25.6055C26.2851 25.1654 27.2497 24.5204 28.0622 23.7072C28.8747 22.894 29.5192 21.9286 29.959 20.866C30.3986 19.8036 30.625 18.6648 30.625 17.5148C30.625 14.0309 29.2421 10.6896 26.7808 8.22614C24.3194 5.76264 20.9809 4.37866 17.5 4.37866C14.0191 4.37866 10.6806 5.76264 8.21923 8.22614C5.75781 10.6896 4.375 14.0309 4.375 17.5148C4.375 18.6648 4.60133 19.8036 5.04105 20.866C5.48078 21.9286 6.12531 22.894 6.93781 23.7072C7.75033 24.5204 8.71492 25.1654 9.77655 25.6055C10.8381 26.0456 11.976 26.2722 13.125 26.2722H21.875ZM17.5 7.88162C14.9473 7.88162 12.4991 8.89652 10.6941 10.7031C8.88904 12.5096 7.875 14.9599 7.875 17.5148C7.875 18.2048 8.01079 18.888 8.27463 19.5255C8.53847 20.1631 8.92517 20.7423 9.41272 21.2302C9.90019 21.7181 10.4789 22.1051 11.1159 22.3692C11.7529 22.6333 12.4356 22.7692 13.125 22.7692H21.875C22.5644 22.7692 23.2471 22.6333 23.8841 22.3692C24.5211 22.1051 25.0998 21.7181 25.5873 21.2302C26.0748 20.7423 26.4615 20.1631 26.7254 19.5255C26.9892 18.888 27.125 18.2048 27.125 17.5148C27.125 14.9599 26.111 12.5096 24.3059 10.7031C22.5009 8.89652 20.0527 7.88162 17.5 7.88162Z" fill="#3064E8"/>
<path fill-rule="evenodd" clip-rule="evenodd" d="M11.375 30.6509C9.8812 30.6509 8.40208 30.3111 7.02198 29.651C5.64193 28.9908 4.38795 28.0232 3.33166 26.8034C2.27541 25.5836 1.43753 24.1356 0.86587 22.5418C0.294225 20.948 0 19.2398 0 17.5148C0 12.8696 1.84375 8.41462 5.12564 5.12996C8.40752 1.84531 12.8587 0 17.5 0C22.1413 0 26.5925 1.84531 29.8743 5.12996C33.1563 8.41462 35 12.8696 35 17.5148C35 19.2398 34.7057 20.948 34.1341 22.5418C33.5625 24.1356 32.7246 25.5836 31.6684 26.8034C30.6121 28.0232 29.3581 28.9908 27.978 29.651C26.5979 30.3111 25.1188 30.6509 23.625 30.6509H11.375ZM7.6005 7.60693C10.226 4.9792 13.7869 3.50296 17.5 3.50296C21.2131 3.50296 24.774 4.9792 27.3995 7.60693C30.025 10.2347 31.5 13.7986 31.5 17.5148C31.5 18.8441 31.2729 20.1514 30.84 21.3582C30.4071 22.565 29.7829 23.6322 29.0234 24.5092C28.2648 25.3853 27.3914 26.0491 26.4688 26.4904C25.5483 26.9307 24.5837 27.1479 23.625 27.1479H11.375C10.4163 27.1479 9.45166 26.9307 8.53124 26.4904C7.60855 26.0491 6.73523 25.3853 5.97657 24.5092C5.21712 23.6322 4.5929 22.565 4.16004 21.3582C3.72716 20.1514 3.5 18.8441 3.5 17.5148C3.5 13.7986 4.975 10.2347 7.6005 7.60693Z" fill="#3064E8"/>
<path d="M21.875 21.8935H17.4962C17.2021 21.8932 16.9103 21.8633 16.625 21.805C16.072 21.6921 15.5432 21.4724 15.0694 21.1555C14.3499 20.6744 13.7891 19.9906 13.458 19.1904C13.3507 18.9309 13.2689 18.6631 13.2134 18.3905C13.0975 17.8226 13.095 17.2345 13.2091 16.6605C13.3779 15.8111 13.7946 15.0309 14.4064 14.4186C15.0182 13.8062 15.7978 13.3892 16.6464 13.2202C16.673 13.2149 16.6996 13.2099 16.7262 13.2051C16.9826 13.159 17.2416 13.1361 17.5 13.1361C18.0718 13.1361 18.6408 13.2483 19.1742 13.4694C19.9736 13.8008 20.6569 14.362 21.1376 15.0821C21.6185 15.8022 21.875 16.6488 21.875 17.5148H18.375C18.375 17.3416 18.3237 17.1723 18.2276 17.0282C18.1314 16.8843 17.9947 16.772 17.8349 16.7057C17.675 16.6394 17.499 16.6221 17.3293 16.6559C17.1595 16.6897 17.0036 16.773 16.8813 16.8955C16.7589 17.018 16.6756 17.174 16.6418 17.3439C16.608 17.5138 16.6253 17.6899 16.6916 17.8499C16.7578 18.0099 16.87 18.1467 17.0139 18.243C17.1578 18.3392 17.3269 18.3905 17.5 18.3905H21.875C21.9899 18.3905 22.1037 18.3678 22.2099 18.3239C22.316 18.2798 22.4124 18.2154 22.4937 18.134C22.575 18.0527 22.6394 17.9562 22.6834 17.8499C22.7273 17.7437 22.75 17.6298 22.75 17.5148C22.75 16.1212 22.1969 14.7848 21.2123 13.7994C20.2277 12.8139 18.8924 12.2603 17.5 12.2603C17.349 12.2603 17.1987 12.2668 17.0494 12.2797C16.6825 12.3113 16.3218 12.3814 15.9731 12.4875C15.63 12.5918 15.2985 12.7311 14.9838 12.9031C14.6233 13.1002 14.2848 13.3401 13.9764 13.6197C13.9121 13.6778 13.8492 13.7377 13.7877 13.7994C13.357 14.2304 13.0088 14.7288 12.7534 15.2696C12.6257 15.5401 12.5212 15.8211 12.4412 16.1097C12.3497 16.4397 12.2902 16.7795 12.2645 17.1246C12.2549 17.254 12.25 17.3841 12.25 17.5148C12.25 18.2015 12.3845 18.885 12.6496 19.5256C13.047 20.4857 13.7199 21.3063 14.5833 21.8837C14.5882 21.887 14.5931 21.8902 14.598 21.8935H13.125C12.5505 21.8935 11.9816 21.7802 11.4508 21.5602C10.92 21.3401 10.4377 21.0176 10.0314 20.611C9.62518 20.2044 9.30291 19.7216 9.08302 19.1904C8.86314 18.6592 8.75 18.0898 8.75 17.5148C8.75 15.1921 9.6719 12.9647 11.3128 11.3223C12.9538 9.68006 15.1793 8.75739 17.5 8.75739C19.8207 8.75739 22.0462 9.68006 23.6872 11.3223C25.3281 12.9647 26.25 15.1921 26.25 17.5148C26.25 18.0898 26.1369 18.6592 25.917 19.1904C25.6971 19.7216 25.3748 20.2044 24.9686 20.611C24.5623 21.0176 24.08 21.3401 23.5492 21.5602C23.0185 21.7802 22.4495 21.8935 21.875 21.8935Z" fill="#3064E8"/>
</svg>
