<svg width="60" height="52" viewBox="0 0 60 52" fill="none" xmlns="http://www.w3.org/2000/svg">
<path d="M50.5714 35.4157C51.0873 35.1194 51.4062 34.5706 51.4081 33.9756L51.4381 24.3304C51.44 23.7354 51.7589 23.1866 52.2748 22.8903L57.5033 19.8869C58.019 19.5908 58.6535 19.5918 59.1682 19.8897C59.6829 20.1876 60 20.7372 60 21.332V38.8674C60 39.4642 59.6808 40.0153 59.1633 40.3125L39.4311 51.6461C38.9183 51.9405 38.2878 51.9412 37.7744 51.6478L22.289 42.7909C21.7697 42.4943 21.4491 41.9422 21.4489 41.3442V32.5023C21.4489 32.4923 21.4606 32.4856 21.4706 32.4906C21.4789 32.4956 21.4906 32.4906 21.4906 32.4789V32.4689C21.4906 32.4623 21.4939 32.4556 21.5006 32.4523L34.2543 25.1254C34.266 25.1187 34.261 25.1004 34.2476 25.1004C34.2403 25.1004 34.2343 25.0944 34.2343 25.0871L34.2593 16.4185C34.2617 15.8219 33.9449 15.2695 33.4288 14.9701C32.9127 14.6708 32.2759 14.6701 31.7592 14.9685L22.2806 20.4303C21.7658 20.7267 21.1321 20.7267 20.6172 20.4303L11.1086 14.9551C10.5931 14.6582 9.95835 14.6587 9.4432 14.9563C8.92805 15.2539 8.6106 15.8036 8.61024 16.3985V32.0656C8.61065 32.6599 8.29458 33.2094 7.7807 33.5079C7.26682 33.8064 6.63287 33.8087 6.11684 33.514L0.840028 30.4972C0.319723 30.2 -0.00099998 29.6464 2.34248e-06 29.0472L0.0466727 1.66309C0.0479653 1.06896 0.365423 0.520447 0.879932 0.223351C1.39444 -0.0737448 2.0282 -0.0744958 2.54341 0.22138L20.6189 10.6033C21.1329 10.8985 21.765 10.8985 22.279 10.6033L40.3495 0.22138C40.8654 -0.0749388 41.5003 -0.0737095 42.0151 0.224605C42.5299 0.52292 42.8467 1.07307 42.8462 1.66809V29.0588C42.8464 29.6552 42.528 30.2063 42.0112 30.5039L32.5476 35.954C32.0302 36.2523 31.7119 36.8046 31.7133 37.4018C31.7147 37.9991 32.0355 38.5499 32.5542 38.8458L37.7744 41.8175C38.2877 42.1098 38.9173 42.1085 39.4294 41.8142L50.5714 35.4157ZM51.6664 10.845C51.6669 11.4451 51.9899 11.9986 52.5121 12.2942C53.0343 12.5897 53.6751 12.5818 54.1898 12.2734L59.19 9.2733C59.6921 8.97244 59.9995 8.43025 60 7.84492V1.73142C59.9989 1.13166 59.6757 0.57872 59.1536 0.283533C58.6315 -0.0116541 57.9911 -0.00356452 57.4766 0.304716L52.4765 3.3048C51.9744 3.60566 51.6669 4.14784 51.6664 4.73317V10.8467V10.845Z" fill="#007FFF"/>
</svg>
