<svg width="60" height="60" viewBox="0 0 60 60" fill="none" xmlns="http://www.w3.org/2000/svg">
<path d="M0 0H60V60H0" fill="#00ED64"/>
<path d="M29.2617 54C29.0273 51.8906 28.8594 50.0547 28.7578 48.4922C28.5234 48.375 9.07031 33.7266 25.9453 11.9648C27.4297 10.168 28.7578 8.42969 29.9297 6.75C29.9648 6.70312 30.0234 6.69141 30.0703 6.75C31.3984 8.625 32.6484 10.2656 33.8203 11.6719C51.0469 33.3516 31.7109 48.2344 31.2422 48.4688C31.0859 50.4219 30.9141 52.2656 30.7266 54M28.8867 46.9219C29.043 47.1562 29.4141 47.5352 30 48.0586C30.5469 47.5898 30.918 47.2109 31.1133 46.9219L30.0586 23.2266C30.0586 23.1445 29.9414 23.1445 29.9414 23.2266" fill="#001E2B"/>
</svg>
