<svg width="85" height="48" viewBox="0 0 85 48" fill="none" xmlns="http://www.w3.org/2000/svg">
<mask id="mask0_334_62" style="mask-type:luminance" maskUnits="userSpaceOnUse" x="1" y="3" width="83" height="43">
<path d="M1.69995 24.4205C1.69995 36.1117 19.9671 45.5896 42.5 45.5896C65.0328 45.5896 83.2999 36.1117 83.2999 24.4205C83.2999 12.7293 65.0328 3.25132 42.5 3.25132C19.9671 3.25132 1.69995 12.7294 1.69995 24.4205Z" fill="white"/>
</mask>
<g mask="url(#mask0_334_62)">
<path d="M1.69995 24.4205C1.69995 36.1117 19.9671 45.5896 42.5 45.5896C65.0328 45.5896 83.2999 36.1117 83.2999 24.4205C83.2999 12.7293 65.0328 3.25132 42.5 3.25132C19.9671 3.25132 1.69995 12.7294 1.69995 24.4205Z" fill="url(#paint0_radial_334_62)"/>
</g>
<mask id="mask1_334_62" style="mask-type:luminance" maskUnits="userSpaceOnUse" x="0" y="0" width="85" height="48">
<path d="M0 0.84103H85V48H0V0.84103Z" fill="white"/>
</mask>
<g mask="url(#mask1_334_62)">
<path d="M42.5 44.0177C64.1528 44.0177 81.7062 35.2438 81.7062 24.4205C81.7062 13.5972 64.1528 4.82335 42.5 4.82335C20.8471 4.82335 3.29373 13.5972 3.29373 24.4205C3.29373 35.2438 20.8471 44.0177 42.5 44.0177Z" fill="#777BB3"/>
</g>
<mask id="mask2_334_62" style="mask-type:luminance" maskUnits="userSpaceOnUse" x="0" y="0" width="85" height="48">
<path d="M0 0.84103H85V48H0V0.84103Z" fill="white"/>
</mask>
<g mask="url(#mask2_334_62)">
<path d="M23.867 26.8501C25.6474 26.8501 26.9765 26.5262 27.8174 25.888C28.6494 25.2563 29.224 24.1614 29.5252 22.6344C29.806 21.2072 29.699 20.2106 29.2073 19.6728C28.7046 19.1234 27.6176 18.8448 25.9766 18.8448H23.1315L21.554 26.8502H23.8668L23.867 26.8501ZM14.5606 36.7113C14.4286 36.7113 14.3031 36.653 14.2192 36.5523C14.1776 36.5026 14.1478 36.4445 14.1317 36.3821C14.1156 36.3197 14.1137 36.2546 14.1262 36.1913L18.3065 14.9771C18.3262 14.8776 18.3803 14.788 18.4595 14.7235C18.5388 14.6591 18.6384 14.6238 18.7411 14.6238H27.7508C30.5824 14.6238 32.69 15.3807 34.0147 16.878C35.3465 18.3816 35.7578 20.4836 35.237 23.1251C35.0251 24.2013 34.6606 25.2007 34.1539 26.0958C33.6462 26.9917 32.9757 27.8206 32.1602 28.56C31.1839 29.4613 30.0789 30.1148 28.8789 30.4994C27.6979 30.8788 26.1813 31.0714 24.3709 31.0714H20.7227L19.6809 36.3581C19.6613 36.4576 19.6072 36.5473 19.5279 36.6118C19.4487 36.6762 19.3492 36.7115 19.2464 36.7115H14.5606V36.7113Z" fill="black"/>
<path d="M23.4966 19.2816H25.9769C27.9573 19.2816 28.6454 19.7103 28.8792 19.9657C29.267 20.3899 29.3402 21.2841 29.0909 22.5517C28.8108 23.9709 28.2917 24.9771 27.5476 25.5421C26.7859 26.1205 25.5475 26.4137 23.8673 26.4137H22.0911L23.4966 19.2816ZM27.751 14.1873H18.7413C18.5358 14.1873 18.3367 14.2578 18.1782 14.3868C18.0196 14.5157 17.9115 14.695 17.8722 14.8939L13.6919 36.1085C13.667 36.2349 13.6708 36.3652 13.7029 36.49C13.7351 36.6149 13.7948 36.7311 13.8779 36.8305C13.9609 36.9299 14.0652 37.0099 14.1833 37.0648C14.3014 37.1198 14.4304 37.1483 14.5609 37.1483H19.2463C19.4518 37.1483 19.6509 37.0778 19.8095 36.9489C19.9681 36.82 20.0762 36.6406 20.1155 36.4417L21.0876 31.5082H24.3711C26.2278 31.5082 27.7908 31.3085 29.0165 30.9147C30.2768 30.5108 31.4367 29.826 32.4629 28.8793C33.3117 28.1091 34.0124 27.2445 34.5407 26.3093C35.069 25.3741 35.4512 24.3307 35.6722 23.2088C36.2204 20.4281 35.7751 18.2015 34.3485 16.5911C32.936 14.9961 30.7163 14.1874 27.7513 14.1874M21.0173 27.2871H23.8673C25.7561 27.2871 27.1634 26.9364 28.0877 26.2342C29.0121 25.5321 29.636 24.3602 29.9601 22.7181C30.27 21.1415 30.1289 20.0289 29.5366 19.3806C28.9442 18.7323 27.7569 18.4083 25.9772 18.4083H22.767L21.0174 27.287M27.7514 15.0606C30.4618 15.0606 32.4391 15.7622 33.682 17.1653C34.9248 18.5684 35.2989 20.5273 34.803 23.042C34.599 24.0779 34.2538 25.025 33.7678 25.8831C33.2819 26.7413 32.646 27.5269 31.8609 28.2388C30.9254 29.1023 29.886 29.7176 28.7424 30.0844C27.5987 30.4519 26.1422 30.6348 24.3714 30.6348H20.3581L19.2469 36.275H14.5615L18.7413 15.0606H27.7511" fill="white"/>
<path d="M45.9801 31.0713C45.8479 31.0713 45.7226 31.013 45.6386 30.9123C45.5546 30.8116 45.5203 30.6794 45.5456 30.5514L47.3947 21.1647C47.5706 20.272 47.5272 19.6313 47.2726 19.3606C47.1168 19.1951 46.6487 18.9175 45.2647 18.9175H41.9145L39.5896 30.7177C39.57 30.8172 39.5159 30.9069 39.4366 30.9714C39.3573 31.0359 39.2578 31.0711 39.155 31.0711H34.5066C34.4413 31.0711 34.3768 31.0569 34.3177 31.0294C34.2587 31.0019 34.2065 30.9619 34.165 30.9122C34.1234 30.8625 34.0936 30.8044 34.0775 30.742C34.0614 30.6796 34.0595 30.6144 34.072 30.5512L38.2523 9.33695C38.2719 9.23747 38.326 9.14783 38.4053 9.08338C38.4846 9.01892 38.5842 8.98368 38.6869 8.98369H43.3353C43.4006 8.98369 43.4651 8.99794 43.5242 9.0254C43.5832 9.05287 43.6354 9.09288 43.6769 9.14257C43.7185 9.19226 43.7483 9.2504 43.7644 9.31282C43.7805 9.37523 43.7824 9.44039 43.7699 9.50361L42.7611 14.6238H46.3651C49.1106 14.6238 50.9722 15.1013 52.0568 16.0834C53.1636 17.0854 53.507 18.6874 53.082 20.8459L51.137 30.718C51.1174 30.8175 51.0634 30.9072 50.9841 30.9717C50.9048 31.0361 50.8052 31.0714 50.7025 31.0714H45.9802L45.9801 31.0713Z" fill="black"/>
<path d="M43.3352 8.54719H38.6868C38.4813 8.54718 38.2821 8.61768 38.1236 8.74661C37.965 8.87554 37.8568 9.05487 37.8176 9.25385L33.6372 30.4681C33.6123 30.5945 33.6161 30.7249 33.6483 30.8497C33.6804 30.9745 33.7402 31.0908 33.8233 31.1902C33.9063 31.2895 34.0107 31.3696 34.1288 31.4245C34.2469 31.4794 34.3758 31.5079 34.5064 31.5079H39.1549C39.3604 31.5079 39.5595 31.4374 39.7181 31.3085C39.8767 31.1796 39.9848 31.0003 40.024 30.8013L42.2794 19.3543H45.2647C46.6464 19.3543 46.9364 19.6454 46.948 19.6579C47.0318 19.7467 47.1421 20.1586 46.9601 21.0814L45.1111 30.4681C45.0862 30.5945 45.0899 30.7249 45.1221 30.8497C45.1542 30.9745 45.214 31.0908 45.2971 31.1902C45.3801 31.2895 45.4845 31.3696 45.6026 31.4245C45.7207 31.4794 45.8497 31.5079 45.9803 31.5079H50.7025C50.908 31.5079 51.1071 31.4374 51.2657 31.3085C51.4243 31.1796 51.5324 31.0003 51.5717 30.8013L53.5166 20.9292C53.9731 18.612 53.5826 16.8735 52.3567 15.7621C51.1868 14.7025 49.2271 14.1872 46.3654 14.1872H43.2983L44.2048 9.58702C44.2298 9.46057 44.226 9.33025 44.1939 9.20539C44.1617 9.08054 44.102 8.96425 44.0189 8.86485C43.9358 8.76546 43.8315 8.68542 43.7134 8.63047C43.5952 8.57553 43.4663 8.54704 43.3357 8.54704M43.3357 9.42036L42.2245 15.0605H46.3656C48.9712 15.0605 50.7684 15.5091 51.7577 16.4051C52.747 17.3011 53.0431 18.7543 52.6479 20.7627L50.7029 30.6346H45.9807L47.8297 21.2482C48.0402 20.1805 47.9628 19.4521 47.5975 19.0638C47.2321 18.6755 46.4544 18.481 45.2651 18.481H41.5496L39.1552 30.6346H34.5067L38.6871 9.42036H43.3355" fill="white"/>
<path d="M60.4371 26.8501C62.2175 26.8501 63.5466 26.5262 64.3875 25.888C65.2195 25.2563 65.7941 24.1617 66.0955 22.6344C66.3763 21.2072 66.2693 20.2106 65.7775 19.6728C65.2747 19.1234 64.1877 18.8448 62.5467 18.8448H59.7016L58.1241 26.8502H60.4369L60.4371 26.8501ZM51.131 36.7113C50.999 36.7113 50.8735 36.653 50.7896 36.5523C50.748 36.5026 50.7181 36.4445 50.702 36.3821C50.6859 36.3197 50.684 36.2546 50.6964 36.1913L54.8768 14.9771C54.8964 14.8776 54.9505 14.7879 55.0299 14.7235C55.1092 14.659 55.2088 14.6238 55.3115 14.6238H64.3211C67.1529 14.6238 69.2602 15.3807 70.5851 16.878C71.9169 18.3816 72.3279 20.4833 71.8074 23.1251C71.5952 24.2013 71.2309 25.2007 70.724 26.0958C70.2163 26.9917 69.5458 27.8206 68.7303 28.56C67.754 29.4613 66.649 30.1148 65.449 30.4994C64.268 30.8788 62.7514 31.0714 60.941 31.0714H57.2924L56.251 36.3581C56.2314 36.4577 56.1773 36.5474 56.0979 36.6119C56.0186 36.6763 55.919 36.7116 55.8162 36.7115H51.1309L51.131 36.7113Z" fill="black"/>
<path d="M60.0666 19.2816H62.547C64.5274 19.2816 65.2155 19.7103 65.4492 19.9657C65.8373 20.3899 65.9104 21.2841 65.661 22.5516C65.3809 23.9707 64.8616 24.9771 64.1177 25.5421C63.356 26.1205 62.1176 26.4137 60.4373 26.4137H58.6616L60.0666 19.2816ZM64.3211 14.1873H55.3114C55.1059 14.1873 54.9068 14.2578 54.7482 14.3868C54.5897 14.5157 54.4815 14.695 54.4423 14.8939L50.2621 36.1085C50.2372 36.2349 50.241 36.3652 50.2731 36.49C50.3053 36.6149 50.365 36.7311 50.4481 36.8305C50.5311 36.9299 50.6354 37.0099 50.7535 37.0648C50.8716 37.1198 51.0006 37.1483 51.1312 37.1483H55.8165C56.022 37.1483 56.2211 37.0778 56.3797 36.9489C56.5383 36.82 56.6465 36.6406 56.6857 36.4417L57.6577 31.5082H60.9411C62.7979 31.5082 64.3609 31.3085 65.5866 30.9147C66.8469 30.5108 68.0068 29.826 69.0333 28.879C69.8821 28.1091 70.581 27.2445 71.1107 26.3093C71.6405 25.3741 72.0212 24.3307 72.2423 23.2088C72.7905 20.428 72.3452 18.2013 70.9186 16.5909C69.5061 14.9961 67.2865 14.1874 64.3214 14.1874M57.5875 27.2871H60.4373C62.3262 27.2871 63.7334 26.9364 64.6578 26.2342C65.5822 25.5321 66.2061 24.3602 66.5302 22.7181C66.8404 21.1415 66.6991 20.0289 66.1067 19.3806C65.5142 18.7323 64.327 18.4083 62.5473 18.4083H59.3371L57.5876 27.287M64.3215 15.0606C67.0319 15.0606 69.0092 15.7622 70.252 17.1653C71.4949 18.5684 71.8689 20.5273 71.3731 23.042C71.169 24.0779 70.8239 25.025 70.3379 25.8831C69.852 26.7413 69.2161 27.5269 68.431 28.2388C67.4954 29.1023 66.4561 29.7176 65.3124 30.0844C64.1688 30.4519 62.7123 30.6348 60.9414 30.6348H56.9281L55.8169 36.275H51.1316L55.312 15.0607H64.3217" fill="white"/>
</g>
<defs>
<radialGradient id="paint0_radial_334_62" cx="0" cy="0" r="1" gradientUnits="userSpaceOnUse" gradientTransform="translate(26.1965 10.6938) scale(53.5762 52.8439)">
<stop stop-color="#AEB2D5"/>
<stop offset="0.3" stop-color="#AEB2D5"/>
<stop offset="0.75" stop-color="#484C89"/>
<stop offset="1" stop-color="#484C89"/>
</radialGradient>
</defs>
</svg>
