<svg width="60" height="60" viewBox="0 0 60 60" fill="none" xmlns="http://www.w3.org/2000/svg">
<path d="M59.7546 33.8093C61.8543 17.3723 50.2463 2.34498 33.8393 0.245363C17.4323 -1.85426 2.34498 9.75365 0.245363 26.1607C-1.85426 42.5677 9.75365 57.625 26.1607 59.7546C42.5977 61.8542 57.625 50.2463 59.7546 33.8093Z" fill="#FF6C37"/>
<path d="M40.8279 19.2617L28.1702 31.9194L24.6008 28.35C37.0486 15.9023 38.2784 16.9821 40.8279 19.2617Z" fill="white"/>
<path d="M28.1702 32.22C28.0802 32.22 28.0203 32.19 27.9603 32.13L24.3609 28.5606C24.2409 28.4406 24.2409 28.2607 24.3609 28.1407C37.0186 15.483 38.3384 16.6828 41.0079 19.0823C41.0679 19.1423 41.0979 19.2023 41.0979 19.2923C41.0979 19.3823 41.0679 19.4423 41.0079 19.5022L28.3502 32.13C28.3202 32.19 28.2302 32.22 28.1702 32.22ZM25.0208 28.3507L28.1702 31.5001L40.378 19.2923C38.1584 17.3126 36.6587 16.7128 25.0208 28.3507Z" fill="#FF6C37"/>
<path d="M31.7996 35.5492L28.3502 32.0999L41.0079 19.4421C44.3973 22.8615 39.3282 28.4105 31.7996 35.5492Z" fill="white"/>
<path d="M31.7998 35.8488C31.7098 35.8488 31.6498 35.8188 31.5898 35.7588L28.1404 32.3095C28.0804 32.2495 28.0804 32.1895 28.0804 32.0995C28.0804 32.0095 28.1104 31.9495 28.1704 31.8895L40.8281 19.2318C40.9481 19.1119 41.1281 19.1119 41.2481 19.2318C42.0279 19.9517 42.4479 20.9715 42.4179 22.0213C42.3579 25.3507 38.5786 29.58 32.0397 35.7588C31.9497 35.8188 31.8598 35.8488 31.7998 35.8488ZM28.7703 32.0995C30.69 34.0492 31.4998 34.829 31.7998 35.129C36.8389 30.3298 41.728 25.4107 41.758 22.0213C41.788 21.2415 41.488 20.4616 40.9781 19.8617L28.7703 32.0995Z" fill="#FF6C37"/>
<path d="M24.6608 28.4397L27.2104 30.9892C27.2704 31.0492 27.2704 31.1092 27.2104 31.1692C27.1804 31.1992 27.1804 31.1992 27.1504 31.1992L21.8713 32.339C21.6014 32.369 21.3614 32.189 21.3014 31.9191C21.2714 31.7691 21.3314 31.6191 21.4214 31.5291L24.4809 28.4697C24.5409 28.4097 24.6308 28.3797 24.6608 28.4397Z" fill="white"/>
<path d="M21.7814 32.6401C21.3315 32.6401 21.0016 32.2801 21.0016 31.8302C21.0016 31.6202 21.0916 31.4103 21.2415 31.2603L24.301 28.2009C24.481 28.0509 24.7209 28.0509 24.9009 28.2009L27.4504 30.7504C27.6304 30.9004 27.6304 31.1703 27.4504 31.3503C27.3904 31.4103 27.3304 31.4403 27.2405 31.4703L21.9614 32.6101C21.9014 32.6101 21.8414 32.6401 21.7814 32.6401ZM24.5709 28.7708L21.6315 31.7102C21.5715 31.7702 21.5415 31.8602 21.6015 31.9502C21.6315 32.0402 21.7215 32.0702 21.8114 32.0402L26.7605 30.9604L24.5709 28.7708Z" fill="#FF6C37"/>
<path d="M47.5169 12.2433C45.5972 10.3836 42.5078 10.4436 40.6481 12.3932C38.7884 14.3429 38.8484 17.4023 40.7981 19.262C42.3878 20.7917 44.7874 21.0617 46.677 19.9219L43.2576 16.5025L47.5169 12.2433Z" fill="white"/>
<path d="M44.1575 20.9114C41.308 20.9114 38.9984 18.6018 38.9984 15.7523C38.9984 12.9028 41.308 10.5933 44.1575 10.5933C45.4772 10.5933 46.767 11.1032 47.7268 12.033C47.7868 12.093 47.8168 12.153 47.8168 12.243C47.8168 12.3329 47.7868 12.3929 47.7268 12.4529L43.6776 16.5022L46.857 19.6816C46.977 19.8016 46.977 19.9816 46.857 20.1015C46.827 20.1315 46.827 20.1315 46.797 20.1615C46.0171 20.6414 45.0873 20.9114 44.1575 20.9114ZM44.1575 11.2231C41.6379 11.2231 39.5983 13.2628 39.6283 15.7823C39.6283 18.3019 41.6679 20.3415 44.1875 20.3115C44.8774 20.3115 45.5672 20.1615 46.1971 19.8316L43.0477 16.7122C42.9877 16.6522 42.9577 16.5922 42.9577 16.5022C42.9577 16.4122 42.9877 16.3522 43.0477 16.2922L47.067 12.273C46.2571 11.5831 45.2373 11.2231 44.1575 11.2231Z" fill="#FF6C37"/>
<path d="M47.607 12.3329L47.547 12.2729L43.2578 16.5022L46.6471 19.8916C46.9771 19.6816 47.307 19.4417 47.577 19.1717C49.4966 17.282 49.4966 14.2226 47.607 12.3329Z" fill="white"/>
<path d="M46.6771 20.2219C46.5871 20.2219 46.5271 20.1919 46.4671 20.1319L43.0477 16.7125C42.9878 16.6525 42.9578 16.5925 42.9578 16.5025C42.9578 16.4126 42.9878 16.3526 43.0477 16.2926L47.307 12.0333C47.427 11.9134 47.6069 11.9134 47.7269 12.0333L47.8169 12.0933C49.8265 14.103 49.8265 17.3424 47.8469 19.382C47.5469 19.682 47.217 19.9519 46.8571 20.1619C46.7671 20.1919 46.7071 20.2219 46.6771 20.2219ZM43.6776 16.5025L46.7071 19.532C46.947 19.382 47.187 19.1721 47.367 18.9921C49.0767 17.2824 49.1666 14.4929 47.5169 12.6932L43.6776 16.5025Z" fill="#FF6C37"/>
<path d="M41.3378 19.8014C40.618 19.0815 39.4482 19.0815 38.7283 19.8014L27.4203 31.1093L29.31 32.999L41.2779 22.5009C42.0577 21.841 42.1177 20.6712 41.4578 19.8914C41.3978 19.8614 41.3678 19.8314 41.3378 19.8014Z" fill="white"/>
<path d="M29.2801 33.2998C29.1901 33.2998 29.1301 33.2698 29.0701 33.2098L27.1804 31.3202C27.0605 31.2002 27.0605 31.0202 27.1804 30.9002L38.4884 19.5923C39.3282 18.7524 40.678 18.7524 41.5179 19.5923C42.3577 20.4321 42.3577 21.7819 41.5179 22.6217C41.4879 22.6517 41.4579 22.6817 41.4279 22.7117L29.46 33.2098C29.43 33.2698 29.37 33.2998 29.2801 33.2998ZM27.8403 31.1102L29.3101 32.5799L41.0679 22.2618C41.7278 21.7219 41.7878 20.7321 41.2479 20.0722C40.708 19.4123 39.7182 19.3523 39.0583 19.8922C39.0283 19.9222 38.9983 19.9522 38.9383 19.9822L27.8403 31.1102Z" fill="#FF6C37"/>
<path d="M18.7522 43.978C18.6322 44.038 18.5722 44.1579 18.6022 44.2779L19.1121 46.4375C19.2321 46.7375 19.0521 47.0974 18.7222 47.1874C18.4822 47.2774 18.2123 47.1874 18.0623 47.0074L14.7629 43.738L25.5309 32.97L29.2503 33.03L31.7698 35.5495C31.1699 36.0594 27.5406 39.5688 18.7522 43.978Z" fill="white"/>
<path d="M18.512 47.487C18.272 47.487 18.0321 47.397 17.8821 47.2171L14.6127 43.9476C14.5527 43.8877 14.5227 43.8277 14.5227 43.7377C14.5227 43.6477 14.5527 43.5877 14.6127 43.5277L25.3807 32.7597C25.4407 32.6997 25.5307 32.6697 25.5907 32.6697L29.31 32.7297C29.4 32.7297 29.46 32.7597 29.52 32.8197L32.0395 35.3392C32.0995 35.3992 32.1295 35.4892 32.1295 35.5792C32.1295 35.6691 32.0995 35.7291 32.0096 35.7891L31.7996 35.9691C28.6202 38.7586 24.3009 41.5481 18.9319 44.2176L19.4418 46.3472C19.5318 46.7371 19.3518 47.1571 18.9919 47.367C18.8119 47.457 18.662 47.487 18.512 47.487ZM15.2126 43.7377L18.302 46.7971C18.392 46.9471 18.572 47.0071 18.7219 46.9171C18.8719 46.8271 18.9319 46.6472 18.8419 46.4972L18.332 44.3376C18.272 44.0676 18.392 43.8277 18.632 43.7077C23.941 41.0382 28.2302 38.2787 31.3797 35.5492L29.1601 33.3296L25.7107 33.2696L15.2126 43.7377Z" fill="#FF6C37"/>
<path d="M12.2131 46.3173L14.7926 43.7378L18.6319 47.5771L12.513 47.1572C12.2431 47.1272 12.0631 46.8872 12.0931 46.6173C12.0931 46.4973 12.1231 46.3773 12.2131 46.3173Z" fill="white"/>
<path d="M18.632 47.8474L12.4831 47.4275C12.0332 47.3975 11.7332 47.0076 11.7632 46.5576C11.7932 46.3777 11.8532 46.1977 12.0032 46.0777L14.5827 43.4982C14.7027 43.3782 14.8827 43.3782 15.0026 43.4982L18.842 47.3375C18.9319 47.4275 18.9619 47.5475 18.9019 47.6674C18.842 47.7874 18.752 47.8474 18.632 47.8474ZM14.7927 44.1581L12.4231 46.5276C12.3331 46.5876 12.3331 46.7376 12.4231 46.7976C12.4531 46.8276 12.4831 46.8576 12.5431 46.8576L17.8521 47.2175L14.7927 44.1581Z" fill="#FF6C37"/>
<path d="M24.4809 34.3492C24.3009 34.3492 24.1809 34.1992 24.1809 34.0493C24.1809 33.9593 24.2109 33.8993 24.2709 33.8393L27.1804 30.9298C27.3003 30.8098 27.4803 30.8098 27.6003 30.9298L29.49 32.8195C29.5799 32.9095 29.6099 32.9995 29.5799 33.1194C29.5499 33.2094 29.46 33.2994 29.34 33.3294L24.5408 34.3492C24.5108 34.3492 24.4809 34.3492 24.4809 34.3492ZM27.3903 31.5597L25.4107 33.5394L28.6501 32.8495L27.3903 31.5597Z" fill="#FF6C37"/>
<path d="M29.2502 33.0291L25.9508 33.749C25.7108 33.809 25.4709 33.659 25.4109 33.419C25.3809 33.2691 25.4109 33.1191 25.5309 32.9991L27.3606 31.1694L29.2502 33.0291Z" fill="white"/>
<path d="M25.8909 34.0493C25.4709 34.0493 25.141 33.7193 25.141 33.2994C25.141 33.0894 25.231 32.9095 25.351 32.7595L27.1806 30.9298C27.3006 30.8098 27.4806 30.8098 27.6005 30.9298L29.4902 32.8195C29.5802 32.9095 29.6102 32.9995 29.5802 33.1194C29.5502 33.2094 29.4602 33.2994 29.3402 33.3294L26.0408 34.0493C25.9808 34.0493 25.9209 34.0493 25.8909 34.0493ZM27.3906 31.5597L25.7709 33.1794C25.7109 33.2394 25.7109 33.2994 25.7409 33.3594C25.7709 33.4194 25.8309 33.4494 25.9209 33.4494L28.6804 32.8495L27.3906 31.5597Z" fill="#FF6C37"/>
<path d="M47.6369 15.2126C47.5769 15.0326 47.3669 14.9426 47.1869 15.0026C47.007 15.0626 46.917 15.2726 46.977 15.4526C46.977 15.4826 47.007 15.5125 47.007 15.5425C47.1869 15.9025 47.1269 16.3524 46.887 16.6823C46.767 16.8323 46.797 17.0423 46.917 17.1622C47.067 17.2822 47.2769 17.2522 47.3969 17.1023C47.8468 16.5324 47.9368 15.8125 47.6369 15.2126Z" fill="#FF6C37"/>
</svg>
