<svg width="60" height="72" viewBox="0 0 60 72" fill="none" xmlns="http://www.w3.org/2000/svg">
<path d="M59.6067 54.8544L34.6891 2.26946C34.0642 0.954861 32.7601 0.0875606 31.282 0.00716052C29.7657 -0.0807395 28.4072 0.646161 27.6407 1.88306L0.615885 45.3813C-0.221243 46.7367 -0.20464 48.4086 0.663583 49.7478L13.8738 70.0836C14.6611 71.2974 16.0253 72 17.443 72C17.8451 72 18.249 71.9436 18.6466 71.8269L56.9918 60.5565C58.1664 60.2112 59.1267 59.3853 59.6294 58.2906C60.132 57.1959 60.1224 55.9422 59.6067 54.8544ZM54.0276 57.1101L21.4925 66.6726C20.4987 66.9651 19.5459 66.1107 19.7548 65.1144L31.3777 9.79857C31.5951 8.76417 33.0339 8.59977 33.4879 9.55767L55.0087 54.9717C55.4145 55.8285 54.9514 56.8389 54.0276 57.1101Z" fill="white"/>
</svg>
