<svg width="60" height="36" viewBox="0 0 60 36" fill="none" xmlns="http://www.w3.org/2000/svg">
<mask id="mask0_118_65" style="mask-type:luminance" maskUnits="userSpaceOnUse" x="0" y="0" width="60" height="37">
<path d="M0 0.00012207H60V36.0001H0V0.00012207Z" fill="white"/>
</mask>
<g mask="url(#mask0_118_65)">
<path fill-rule="evenodd" clip-rule="evenodd" d="M30 0.00012207C22 0.00012207 17 4.00012 15 12.0001C18 8.00012 21.5 6.50012 25.5 7.50012C27.7822 8.07012 29.4133 9.72679 31.2189 11.559C34.16 14.5446 37.5644 18.0001 45 18.0001C53 18.0001 58 14.0001 60 6.00012C57 10.0001 53.5 11.5001 49.5 10.5001C47.2178 9.93012 45.5867 8.27346 43.7811 6.44123C40.84 3.45568 37.4356 0.00012207 30 0.00012207ZM15 18.0001C7 18.0001 2 22.0001 0 30.0001C3 26.0001 6.5 24.5001 10.5 25.5001C12.7822 26.0712 14.4133 27.7268 16.2189 29.559C19.16 32.5446 22.5644 36.0001 30 36.0001C38 36.0001 43 32.0001 45 24.0001C42 28.0001 38.5 29.5001 34.5 28.5001C32.2178 27.9301 30.5867 26.2735 28.7811 24.4412C25.84 21.4557 22.4356 18.0001 15 18.0001Z" fill="#38BDF8"/>
</g>
</svg>
